<?xml version="1.0" encoding="UTF-8" standalone="no"?>
<svg
   xmlns:dc="http://purl.org/dc/elements/1.1/"
   xmlns:cc="http://creativecommons.org/ns#"
   xmlns:rdf="http://www.w3.org/1999/02/22-rdf-syntax-ns#"
   xmlns:svg="http://www.w3.org/2000/svg"
   xmlns="http://www.w3.org/2000/svg"
   version="1.0"
   id="svg2"
   height="506.75552"
   width="668.25317">
  <title
     id="title885">Centre Informatique National de l'Enseignement Supérieur (CINES) logo</title>
  <defs
     id="defs4" />
  <metadata
     id="metadata7">
    <rdf:RDF>
      <cc:Work
         rdf:about="">
        <dc:format>image/svg+xml</dc:format>
        <dc:type
           rdf:resource="http://purl.org/dc/dcmitype/StillImage" />
        <dc:title>Centre Informatique National de l'Enseignement Supérieur (CINES) logo</dc:title>
        <cc:license
           rdf:resource="http://creativecommons.org/publicdomain/zero/1.0/" />
        <dc:creator>
          <cc:Agent>
            <dc:title>{{unknown|author}}</dc:title>
          </cc:Agent>
        </dc:creator>
        <dc:rights>
          <cc:Agent>
            <dc:title>{{PD-simple}} {{PD-text}}</dc:title>
          </cc:Agent>
        </dc:rights>
        <dc:source>[https://www.cines.fr/ cines.fr]</dc:source>
        <dc:language>french</dc:language>
        <dc:date>{{Upload date|2007-01-22}}</dc:date>
      </cc:Work>
      <cc:License
         rdf:about="http://creativecommons.org/publicdomain/zero/1.0/">
        <cc:permits
           rdf:resource="http://creativecommons.org/ns#Reproduction" />
        <cc:permits
           rdf:resource="http://creativecommons.org/ns#Distribution" />
        <cc:permits
           rdf:resource="http://creativecommons.org/ns#DerivativeWorks" />
      </cc:License>
    </rdf:RDF>
  </metadata>
  <g
     transform="translate(-28.758741,-83.118665)"
     style="display:none"
     id="layer1" />
  <g
     transform="translate(-28.758741,-83.118665)"
     style="display:inline;opacity:1"
     id="layer3">
    <path
       transform="matrix(0.969736,0,0,0.969736,17.65882,7.244204)"
       d="m 264.70069,277.64892 a 32.351933,32.351933 0 0 1 32.35934,32.2863 32.351933,32.351933 0 0 1 -32.22807,32.41733 32.351933,32.351933 0 0 1 -32.47522,-32.16974 32.351933,32.351933 0 0 1 32.1113,-32.533"
       id="path1956"
       style="opacity:1;fill:#db4326;fill-opacity:1;stroke:none;stroke-width:0.2;stroke-linecap:round;stroke-linejoin:round;stroke-miterlimit:4;stroke-dasharray:none;stroke-opacity:1" />
  </g>
  <g
     transform="translate(-28.758741,-83.118665)"
     style="display:inline;opacity:1"
     id="layer4">
    <path
       id="path3731"
       d="m 195.03595,311.96508 c -9.89348,20.63028 -9.70558,47.14139 -9.70558,47.14139 h -20.56659 c 0,0 -0.11554,-22.47304 7.8569,-44.59945 7.97244,-22.12641 15.26992,-33.09861 24.03286,-43.9062 8.98842,-11.08569 24.9028,-25.79432 39.97775,-35.12496 11.51287,-7.12589 22.34242,-11.1439 33.50736,-14.32728 8.27605,-2.35969 28.19057,-6.59852 42.05751,-5.77713 10.96945,0.64976 23.18917,3.85625 37.6669,9.47449 7.74135,3.00411 9.31341,3.91549 21.02876,10.86101 8.08799,4.79502 24.26395,19.41116 24.26395,19.41116 0,0 -19.1745,-10.53145 -25.88155,-12.70969 -18.38715,-5.97157 -24.4037,-6.95118 -29.34782,-7.39473 -19.35277,-1.73619 -21.37538,-0.34662 -30.73434,0.23109 -18.92494,1.16821 -30.98658,3.35423 -44.83054,8.78124 -15.3605,6.02152 -28.89543,16.30271 -38.36015,24.72612 -12.15721,10.81967 -22.70914,25.99662 -30.96542,43.21294 z"
       style="fill:#134444;fill-opacity:1;fill-rule:evenodd;stroke:none;stroke-width:1px;stroke-linecap:butt;stroke-linejoin:miter;stroke-opacity:1" />
  </g>
  <g
     transform="translate(-28.758741,-83.118665)"
     style="display:inline;opacity:1"
     id="layer5">
    <path
       id="path4619"
       d="m 396.08631,202.25364 v -49.67419 c 0,0 -26.03063,-11.19726 -55.23558,-14.96819 -29.20495,-3.77093 -33.4207,-3.35073 -61.58421,-0.11554 -28.16351,3.23519 -73.77397,18.60236 -100.17546,39.40003 -26.40149,20.79767 -46.23485,40.9393 -56.50034,56.84697 -22.37905,34.67917 -32.424925,63.08124 -35.240498,83.7684 -3.339051,24.53337 -7.180859,48.26135 -2.194573,80.51406 4.750447,30.72724 18.551481,65.27377 32.235651,86.79166 14.93638,23.48696 36.26421,43.96837 57.65577,60.89096 18.62882,14.73702 44.86825,27.42916 66.89918,33.73845 25.12159,7.1944 49.85913,10.05657 69.90329,10.39883 20.39174,0.34261 31.16762,-2.36863 52.10972,-6.58593 20.9421,-4.21731 31.65868,-10.28329 31.65868,-10.28329 v -50.26104 c 0,0 -10.64159,7.94083 -38.95769,15.59825 -22.04372,5.9612 -46.98976,7.71212 -76.81602,3.46628 -23.68188,-3.37117 -62.79741,-19.9311 -81.91972,-35.81821 -36.23989,-30.10866 -43.8296,-44.52154 -61.12205,-86.88805 -8.6657,-21.23096 -10.32233,-56.58175 -6.81701,-83.07515 1.71592,-12.969 9.68039,-48.94905 34.77833,-82.9596 10.16775,-13.77846 31.65523,-38.25516 65.05049,-53.49623 22.84855,-10.42772 31.54314,-14.7028 63.31736,-17.79357 31.77422,-3.09076 51.70659,2.53756 63.77953,5.43051 13.42035,3.21582 39.17515,15.07459 39.17515,15.07459 z"
       style="fill:#134444;fill-opacity:1;fill-rule:evenodd;stroke:none;stroke-width:1px;stroke-linecap:butt;stroke-linejoin:miter;stroke-opacity:1" />
  </g>
  <g
     transform="translate(-28.758741,-83.118665)"
     style="display:inline;opacity:1"
     id="layer6">
    <path
       id="path1935"
       d="m 48.69378,359.1195 0.0817,2.36933 c -5.004185,0 -20.016739,0 -20.016739,0 0,0 0.163402,-13.37853 1.143814,-25.0822 0.980412,-11.70366 0.612757,-9.70199 2.777833,-21.73246 2.165076,-12.03047 1.776996,-11.76493 5.88247,-26.38941 4.105474,-14.62448 3.411015,-14.93086 10.539425,-32.10849 7.12841,-17.17763 9.354761,-21.16055 17.974214,-36.60203 8.619453,-15.44148 7.373514,-12.74535 16.503597,-25.1639 9.130083,-12.41855 10.171769,-13.60321 20.016736,-24.51029 9.84497,-10.90708 7.02628,-8.47648 19.36313,-19.11803 12.33685,-10.64155 10.72325,-11.15218 29.98426,-23.44818 19.26101,-12.296 28.51364,-16.80998 47.05976,-25.73581 18.54612,-8.925831 33.47698,-12.438969 41.6675,-14.134264 8.19052,-1.695295 6.27054,-1.531893 18.21931,-2.614431 11.94877,-1.082538 15.07384,-1.634019 29.57576,-1.71572 14.50192,-0.0817 14.91042,0.142976 28.43193,1.388916 13.52151,1.24594 14.01172,1.511468 25.65411,3.594843 11.64239,2.083375 7.86372,0.898711 20.91545,4.738657 13.05173,3.839947 31.29147,10.621129 31.29147,10.621129 0,0 -5.41269,-1.71572 -15.76829,-3.594846 -10.3556,-1.879123 -13.74618,-2.614431 -25.6541,-3.921646 -11.90791,-1.307216 -7.55734,-1.348067 -21.97756,-1.307216 -14.42022,0.04085 -17.85167,-0.490207 -35.70333,1.470618 -17.85166,1.960825 -19.75121,2.736988 -35.70332,6.37268 -15.95212,3.63569 -11.70367,2.36932 -28.10514,8.17009 -16.40147,5.80077 -19.93503,6.49523 -37.50074,15.03298 -17.56571,8.53775 -12.08895,5.0935 -32.76209,19.11803 -20.89026,14.17182 -20.56822,12.80663 -40.68709,35.13142 -20.11887,22.32479 -24.183489,27.55365 -39.788374,54.16774 -15.604885,26.61409 -14.481497,26.69579 -22.631169,52.28862 -8.149672,25.59283 -7.271387,31.90423 -9.967519,50.0827 -2.696132,18.17847 -0.817009,22.63117 -0.817008,22.63117 z"
       style="fill:#134444;fill-opacity:1;fill-rule:evenodd;stroke:none;stroke-width:1px;stroke-linecap:butt;stroke-linejoin:miter;stroke-opacity:1" />
  </g>
  <g
     transform="translate(-28.758741,-83.118665)"
     style="display:inline"
     id="layer7">
    <path
       id="path2825"
       d="m 254.74363,496.86734 0.1634,-145.26433 h 38.56286 v 145.26433 z"
       style="fill:#134444;fill-opacity:1;fill-rule:evenodd;stroke:none;stroke-width:1px;stroke-linecap:butt;stroke-linejoin:miter;stroke-opacity:1" />
  </g>
  <g
     transform="translate(-28.758741,-83.118665)"
     style="display:inline;opacity:1"
     id="layer8">
    <path
       id="path3713"
       d="M 322.13283,496.83327 V 351.48065 h 45.06163 l 53.38069,82.26635 v -82.03527 h 36.51147 v 145.35262 h -41.13318 l -55.92263,-86.42588 v 86.1948 z"
       style="fill:#134444;fill-opacity:1;fill-rule:evenodd;stroke:none;stroke-width:1px;stroke-linecap:butt;stroke-linejoin:miter;stroke-opacity:1" />
  </g>
  <g
     transform="translate(-28.758741,-83.118665)"
     style="display:inline"
     id="layer9">
    <path
       id="path3716"
       d="m 486.12079,496.86734 0.1634,-145.42773 h 82.51798 v 32.51699 h -44.44533 v 23.85668 h 42.3211 v 32.02678 h -42.4845 v 24.67369 h 44.60873 v 32.35359 z"
       style="fill:#134444;fill-opacity:1;fill-rule:evenodd;stroke:none;stroke-width:1px;stroke-linecap:butt;stroke-linejoin:miter;stroke-opacity:1" />
  </g>
  <g
     transform="translate(-28.758741,-83.118665)"
     style="display:inline;opacity:1"
     id="layer10">
    <path
       id="path3719"
       d="m 676.32065,390.08417 14.86958,-29.00385 -21.24226,-8.4969 c 0,0 -15.80914,-4.00335 -28.59534,-3.02294 -13.38213,1.03271 -20.66309,5.69 -24.83709,8.2518 -8.633,5.2985 -13.47222,14.52419 -15.68659,19.11803 -1.92896,4.00174 -4.66763,12.66449 -3.75824,24.18349 0.49021,6.20928 2.407,17.25399 7.35308,21.89586 5.35589,5.02648 11.03928,8.48926 22.30437,12.33685 11.60154,3.96249 9.8847,3.02456 17.0755,5.39226 3.34974,1.10297 9.45089,4.03097 11.19303,6.20927 3.27156,4.0906 3.18634,3.75825 3.18634,7.925 0,4.16675 -1.30081,6.50416 -3.43144,8.6603 -2.17331,2.19933 -6.21019,4.16253 -9.96752,4.90206 -3.03457,0.59727 -7.67989,0.20426 -11.27473,-0.3268 -5.41474,-0.7999 -5.63736,-1.34806 -10.29432,-3.43144 -4.65696,-2.08337 -4.371,-2.24678 -8.3335,-4.90206 -3.9625,-2.65528 -7.51649,-5.71907 -7.51649,-5.71907 l -16.17679,30.06596 c 0,0 6.10904,4.23617 9.15051,5.71907 5.86315,2.85865 16.26667,7.55306 21.89586,8.4969 5.16757,0.86644 12.7045,2.49187 19.60823,2.28762 10.3345,-0.30942 17.11635,-1.63402 21.73246,-3.43144 10.09997,-3.93273 16.62329,-8.0848 19.28143,-10.62112 7.95241,-7.58796 8.42975,-10.38739 12.09174,-20.58865 1.71572,-4.77951 2.32848,-15.82956 1.96083,-20.42524 -0.80933,-10.11664 -2.21082,-12.86426 -7.02629,-19.85334 -4.654,-6.75473 -12.10451,-10.14727 -17.48401,-12.74535 -4.95193,-2.39158 -16.35861,-5.17389 -25.1639,-8.5786 -6.12757,-2.36932 -8.20572,-4.54678 -9.64071,-6.61778 -2.04214,-2.94724 -1.64149,-5.54017 -1.38892,-7.43479 0.288,-2.16036 2.17388,-4.30792 3.75825,-5.47396 1.94226,-1.42944 5.43643,-3.31343 8.3335,-3.83995 2.83383,-0.51503 4.75908,-0.67404 9.47731,0.1634 4.71823,0.83744 5.66124,1.72628 9.39561,3.18634 2.71656,1.06211 3.04675,1.69026 5.39227,3.02294 1.79742,1.02127 3.75824,2.69613 3.75824,2.69613 z"
       style="fill:#134444;fill-opacity:1;fill-rule:evenodd;stroke:none;stroke-width:0.30000001;stroke-linecap:butt;stroke-linejoin:miter;stroke-miterlimit:4;stroke-dasharray:none;stroke-opacity:1" />
  </g>
  <g
     transform="translate(-28.758741,-83.118665)"
     style="display:inline;opacity:1"
     id="layer11" />
</svg>
